<svg viewBox="37 234.8 40 40" xmlns="http://www.w3.org/2000/svg">
  <defs>
    <linearGradient id="g1" gradientUnits="userSpaceOnUse" x1="47.87" y1="238.78" x2="56.45" y2="265.86">
      <stop offset="0" stop-color="#a9f3ff"/>
      <stop offset="1" stop-color="#0121dc"/>
    </linearGradient>
    <linearGradient id="g2" gradientUnits="userSpaceOnUse" x1="61.03" y1="261.28" x2="40.24" y2="245.45">
      <stop offset="0" stop-color="#a9f3ff"/>
      <stop offset="1" stop-color="#0121dc"/>
    </linearGradient>
  </defs>
  <path fill="url(#g1)" d="m 62.24,235.68 c -4.05,0.1 -8.13,-0.15 -12.17,0.22 -4.69,0.72 -9.23,5.01 -9.16,9.95 -0.05,8.27 0,16.37 0,24.59 -0.01,2.58 2.82,4.39 5.71,4.4 2.74,-0.03 5.16,-2.11 5.21,-5.25 0.12,-2.32 1,-7.46 10.07,-7.46 4.73,0.07 9.64,-2.97 10.83,-7.71 0.61,-2.5 0.55,-4.97 0.49,-7.63 0,-2.96 -0.25,-5.52 -2.19,-7.5 -2.21,-2.47 -5.54,-3.61 -8.79,-3.62 z"/>
  <path fill="url(#g2)" d="m 73.2,245.52 c -0.07,-0.48 -0.12,-0.92 -0.11,-1.23 0,0 0.5,8.78 -15.41,8.66 -12.76,-0.09 -16.16,3.59 -16.79,9.6 0,2.03 0.01,4.06 0.01,6.1 0,0.02 0,0.04 0,0.06 0.05,0.77 1.24,-8.35 17.62,-6.73 0.82,0.08 1.6,0.13 2.34,0.16 0.33,-0.02 0.67,-0.03 1.03,-0.03 4.73,0.07 9.64,-2.97 10.83,-7.71 0.61,-2.5 0.55,-4.97 0.49,-7.63 0,-0.43 -0.01,-0.86 -0.03,-1.27 z"/>
</svg>