<?xml version="1.0" encoding="UTF-8" standalone="no"?>
<!-- Created with Inkscape (http://www.inkscape.org/) -->

<svg
   width="120.80939mm"
   height="29.076424mm"
   viewBox="0 0 120.80939 29.076424"
   version="1.1"
   id="svg1"
   xml:space="preserve"
   xmlns:xlink="http://www.w3.org/1999/xlink"
   xmlns="http://www.w3.org/2000/svg"
   xmlns:svg="http://www.w3.org/2000/svg"><defs
     id="defs1"><linearGradient
       id="linearGradient20"><stop
         style="stop-color:#a9f3ff;stop-opacity:1;"
         offset="0"
         id="stop22" /><stop
         style="stop-color:#0121dc;stop-opacity:1"
         offset="1"
         id="stop21" /></linearGradient><rect
       x="5.7665834"
       y="611.25787"
       width="648.74066"
       height="100.91521"
       id="rect12-6" /><linearGradient
       xlink:href="#linearGradient20"
       id="linearGradient34"
       gradientUnits="userSpaceOnUse"
       x1="47.870152"
       y1="238.77861"
       x2="56.45245"
       y2="265.86053" /><linearGradient
       xlink:href="#linearGradient20"
       id="linearGradient35"
       gradientUnits="userSpaceOnUse"
       x1="61.029675"
       y1="261.28329"
       x2="40.241444"
       y2="245.45372" /></defs><g
     id="layer1"
     transform="translate(-44.602735,-237.67976)"><g
       id="g34-4"
       transform="matrix(0.74255173,0,0,0.74255173,25.818218,214.5294)"><g
         id="g33-8"
         transform="translate(15.697075,-93.694822)"
         style="fill:#ffffff"><g
           id="g12-9"
           style="fill:#ffffff;fill-opacity:1"
           transform="translate(-8.6308994,-147.26472)"><path
             d="m 114.72646,297 q -1.03916,0 -2.07832,-0.16532 -1.03917,-0.14171 -1.96024,-0.44873 -0.92107,-0.33064 -1.65321,-0.80299 -0.42511,-0.28341 -0.59043,-0.6849 -0.16532,-0.4015 -0.11809,-0.77937 0.0708,-0.4015 0.30703,-0.6849 0.25979,-0.30703 0.63766,-0.37788 0.37788,-0.0709 0.82661,0.21255 1.03916,0.61405 2.19641,0.89746 1.15724,0.28341 2.43258,0.28341 1.86577,0 2.71599,-0.61405 0.85022,-0.63767 0.85022,-1.62959 0,-0.82661 -0.61405,-1.29896 -0.59043,-0.47234 -2.0547,-0.77937 l -2.59791,-0.54319 q -2.24364,-0.47235 -3.35365,-1.58236 -1.0864,-1.13363 -1.0864,-2.97578 0,-1.15725 0.47235,-2.10194 0.47234,-0.9447 1.32257,-1.6296 0.87384,-0.6849 2.0547,-1.03916 1.20448,-0.37788 2.64514,-0.37788 1.41704,0 2.69237,0.35426 1.27533,0.35426 2.29088,1.03917 0.37788,0.25979 0.49596,0.63766 0.14171,0.37788 0.0709,0.75576 -0.0709,0.35426 -0.33064,0.61405 -0.25979,0.25979 -0.66128,0.30702 -0.37788,0.0472 -0.87384,-0.23617 -0.87384,-0.49597 -1.7713,-0.70852 -0.89746,-0.21256 -1.93662,-0.21256 -1.0864,0 -1.86577,0.30703 -0.77937,0.30702 -1.20448,0.87384 -0.40149,0.5432 -0.40149,1.29895 0,0.85022 0.56681,1.3698 0.56682,0.49597 1.93662,0.77937 l 2.57429,0.5432 q 2.33811,0.49597 3.47174,1.55874 1.15725,1.06278 1.15725,2.83408 0,1.13363 -0.47235,2.0547 -0.44873,0.92108 -1.32257,1.58236 -0.85022,0.66129 -2.0547,1.01555 Q 116.23797,297 114.72646,297 Z"
             id="text7-1"
             style="font-size:23.6173px;line-height:0.7;font-family:Nunito;-inkscape-font-specification:'Nunito, @wght=700';font-variation-settings:'wght' 700;text-align:center;white-space:pre;stroke-width:1.00106"
             aria-label="S" /><g
             id="g11-2"
             style="fill:#ffffff;fill-opacity:1"><path
               d="m 64.196529,297 q -0.732137,0 -1.133631,-0.40149 -0.377876,-0.42511 -0.377876,-1.15725 v -13.74527 q 0,-0.75575 0.401494,-1.13363 0.401494,-0.40149 1.13363,-0.40149 h 5.691769 q 2.739607,0 4.227497,1.3698 1.48789,1.36981 1.48789,3.82601 0,2.45619 -1.48789,3.84962 -1.48789,1.3698 -4.227497,1.3698 h -4.203879 v 4.86516 q 0,0.73214 -0.377877,1.15725 Q 64.952282,297 64.196529,297 Z m 1.511507,-8.80925 h 3.731533 q 1.605977,0 2.432582,-0.70852 0.826606,-0.73213 0.826606,-2.12555 0,-1.39343 -0.826606,-2.10194 -0.826605,-0.70852 -2.432582,-0.70852 h -3.731533 z"
               id="text11-9"
               style="font-size:23.6173px;line-height:0.7;font-family:Nunito;-inkscape-font-specification:'Nunito, @wght=700';font-variation-settings:'wght' 700;text-align:center;white-space:pre;stroke-width:1.00106"
               aria-label="P" /><path
               d="m 80.530137,297 q -1.251717,0 -2.243644,-0.47235 -0.968309,-0.49596 -1.535124,-1.32257 -0.543198,-0.8266 -0.543198,-1.86576 0,-1.27534 0.661284,-2.00747 0.661285,-0.75576 2.149175,-1.0864 1.487889,-0.33064 3.991323,-0.33064 h 1.180865 v 1.70044 h -1.157247 q -1.464273,0 -2.338113,0.14171 -0.87384,0.1417 -1.251717,0.49596 -0.35426,0.33064 -0.35426,0.94469 0,0.77937 0.543198,1.27534 0.543198,0.49596 1.511508,0.49596 0.77937,0 1.369803,-0.35426 0.61405,-0.37788 0.968309,-1.01554 0.35426,-0.63767 0.35426,-1.46428 v -2.71599 q 0,-1.18086 -0.519581,-1.70044 -0.51958,-0.51958 -1.74768,-0.51958 -0.684902,0 -1.48789,0.16532 -0.779371,0.16532 -1.653211,0.56681 -0.448729,0.21256 -0.802988,0.11809 -0.330642,-0.0945 -0.519581,-0.37788 -0.188938,-0.30702 -0.188938,-0.66128 0,-0.35426 0.188938,-0.6849 0.188939,-0.35426 0.637667,-0.51958 1.086396,-0.44873 2.078323,-0.63767 1.015544,-0.18894 1.842149,-0.18894 1.700446,0 2.786842,0.51958 1.110013,0.51958 1.653211,1.58236 0.543197,1.03916 0.543197,2.69237 v 5.66816 q 0,0.73213 -0.354259,1.13363 -0.35426,0.37787 -1.015544,0.37787 -0.661284,0 -1.039161,-0.37787 -0.35426,-0.4015 -0.35426,-1.13363 v -1.13363 h 0.188939 q -0.165321,0.8266 -0.661285,1.44065 -0.472346,0.59043 -1.204482,0.92108 Q 81.474829,297 80.530137,297 Z"
               id="text10-9"
               style="font-size:23.6173px;line-height:0.7;font-family:Nunito;-inkscape-font-specification:'Nunito, @wght=700';font-variation-settings:'wght' 700;text-align:center;white-space:pre;stroke-width:1.00106"
               aria-label="a" /><path
               d="m 93.925605,297 q -1.818532,0 -3.164718,-0.73214 -1.346186,-0.75575 -2.078322,-2.12556 -0.732137,-1.3698 -0.732137,-3.21195 0,-1.39342 0.401494,-2.47982 0.425112,-1.11001 1.204483,-1.86576 0.779371,-0.77937 1.889384,-1.18087 1.110013,-0.42511 2.479816,-0.42511 0.779371,0 1.676828,0.21256 0.921075,0.21255 1.724063,0.70852 0.377877,0.23617 0.495964,0.56681 0.118086,0.33064 0.04723,0.6849 -0.07085,0.33065 -0.307025,0.59044 -0.212555,0.23617 -0.543197,0.30702 -0.330643,0.0472 -0.732137,-0.16532 -0.51958,-0.30703 -1.062778,-0.44873 -0.543198,-0.16532 -1.039162,-0.16532 -0.77937,0 -1.369803,0.25979 -0.590432,0.23617 -1.015544,0.70852 -0.401494,0.44873 -0.61405,1.13363 -0.212555,0.6849 -0.212555,1.58236 0,1.74768 0.826605,2.76322 0.850223,0.99193 2.385347,0.99193 0.495964,0 1.015544,-0.1417 0.543198,-0.14171 1.086396,-0.44873 0.401494,-0.21256 0.708519,-0.14171 0.330642,0.0708 0.543198,0.33065 0.212556,0.23617 0.25979,0.59043 0.04724,0.33064 -0.09447,0.66128 -0.118086,0.33064 -0.472346,0.5432 -0.779371,0.47235 -1.653211,0.6849 Q 94.704976,297 93.925605,297 Z"
               id="text9-0"
               style="font-size:23.6173px;line-height:0.7;font-family:Nunito;-inkscape-font-specification:'Nunito, @wght=700';font-variation-settings:'wght' 700;text-align:center;white-space:pre;stroke-width:1.00106"
               aria-label="c" /><path
               d="m 105.2637,297 q -1.53512,0 -2.57428,-0.51958 -1.01555,-0.51958 -1.51151,-1.51151 -0.49597,-1.01554 -0.49597,-2.50343 v -5.03049 h -1.228095 q -0.566815,0 -0.87384,-0.28341 -0.307025,-0.30702 -0.307025,-0.8266 0,-0.5432 0.307025,-0.82661 0.307025,-0.28341 0.87384,-0.28341 h 1.228095 v -2.14917 q 0,-0.73214 0.37788,-1.11001 0.4015,-0.37788 1.11001,-0.37788 0.70852,0 1.0864,0.37788 0.37788,0.37787 0.37788,1.11001 v 2.14917 h 2.50343 q 0.56682,0 0.87384,0.28341 0.30703,0.28341 0.30703,0.82661 0,0.51958 -0.30703,0.8266 -0.30702,0.28341 -0.87384,0.28341 h -2.50343 v 4.86516 q 0,1.13364 0.49596,1.70045 0.49596,0.56682 1.60598,0.56682 0.40149,0 0.70852,-0.0709 0.30702,-0.0709 0.54319,-0.0945 0.28341,-0.0236 0.47235,0.18894 0.18894,0.18894 0.18894,0.80299 0,0.47235 -0.16532,0.85022 -0.14171,0.35426 -0.5432,0.49597 -0.30703,0.0945 -0.80299,0.16532 Q 105.64158,297 105.2637,297 Z"
               id="text8-9"
               style="font-size:23.6173px;line-height:0.7;font-family:Nunito;-inkscape-font-specification:'Nunito, @wght=700';font-variation-settings:'wght' 700;text-align:center;white-space:pre;stroke-width:1.00106"
               aria-label="t" /><path
               d="m 127.33894,297 q -1.53512,0 -2.57428,-0.51958 -1.01555,-0.51958 -1.51151,-1.51151 -0.49596,-1.01554 -0.49596,-2.50343 v -5.03049 h -1.2281 q -0.56682,0 -0.87384,-0.28341 -0.30703,-0.30702 -0.30703,-0.8266 0,-0.5432 0.30703,-0.82661 0.30702,-0.28341 0.87384,-0.28341 h 1.2281 v -2.14917 q 0,-0.73214 0.37787,-1.11001 0.4015,-0.37788 1.11002,-0.37788 0.70851,0 1.08639,0.37788 0.37788,0.37787 0.37788,1.11001 v 2.14917 h 2.50343 q 0.56682,0 0.87384,0.28341 0.30703,0.28341 0.30703,0.82661 0,0.51958 -0.30703,0.8266 -0.30702,0.28341 -0.87384,0.28341 h -2.50343 v 4.86516 q 0,1.13364 0.49596,1.70045 0.49596,0.56682 1.60598,0.56682 0.40149,0 0.70852,-0.0709 0.30702,-0.0709 0.54319,-0.0945 0.28341,-0.0236 0.47235,0.18894 0.18894,0.18894 0.18894,0.80299 0,0.47235 -0.16532,0.85022 -0.14171,0.35426 -0.5432,0.49597 -0.30702,0.0945 -0.80299,0.16532 Q 127.71682,297 127.33894,297 Z"
               id="text6-8"
               style="font-size:23.6173px;line-height:0.7;font-family:Nunito;-inkscape-font-specification:'Nunito, @wght=700';font-variation-settings:'wght' 700;text-align:center;white-space:pre;stroke-width:1.00106"
               aria-label="t" /><path
               d="m 132.62927,297 q -0.73213,0 -1.13363,-0.37787 -0.37787,-0.4015 -0.37787,-1.13363 v -8.92734 q 0,-0.73214 0.37787,-1.11002 0.37788,-0.37787 1.06278,-0.37787 0.6849,0 1.06278,0.37787 0.37788,0.37788 0.37788,1.11002 v 1.48789 h -0.23618 q 0.33065,-1.41704 1.29896,-2.14918 0.9683,-0.73213 2.57428,-0.87384 0.49596,-0.0472 0.77937,0.25979 0.30703,0.28341 0.35426,0.89746 0.0472,0.59043 -0.28341,0.96831 -0.30702,0.35426 -0.94469,0.42511 l -0.51958,0.0472 q -1.44065,0.1417 -2.17279,0.89745 -0.73214,0.73214 -0.73214,2.07833 v 4.88878 q 0,0.73213 -0.37787,1.13363 Q 133.36141,297 132.62927,297 Z"
               id="text5-6"
               style="font-size:23.6173px;line-height:0.7;font-family:Nunito;-inkscape-font-specification:'Nunito, @wght=700';font-variation-settings:'wght' 700;text-align:center;white-space:pre;stroke-width:1.00106"
               aria-label="r" /><path
               d="m 145.01098,297 q -1.96023,0 -3.37727,-0.73214 -1.41704,-0.73214 -2.19641,-2.07832 -0.75575,-1.34619 -0.75575,-3.18834 0,-1.79491 0.73213,-3.1411 0.75576,-1.34618 2.05471,-2.10194 1.32257,-0.77937 2.99939,-0.77937 1.2281,0 2.19641,0.4015 0.99193,0.40149 1.67683,1.15724 0.70852,0.75576 1.06278,1.84215 0.37788,1.06278 0.37788,2.40897 0,0.42511 -0.30703,0.66128 -0.28341,0.21256 -0.8266,0.21256 h -7.58116 v -1.70045 h 6.63646 l -0.37787,0.35426 q 0,-1.08639 -0.33064,-1.81853 -0.30703,-0.73214 -0.92108,-1.11001 -0.59043,-0.4015 -1.48789,-0.4015 -0.99193,0 -1.70045,0.47235 -0.6849,0.44873 -1.06277,1.29895 -0.35426,0.82661 -0.35426,1.98385 v 0.16532 q 0,1.93662 0.89745,2.90493 0.92108,0.94469 2.69238,0.94469 0.61405,0 1.3698,-0.1417 0.77937,-0.16532 1.46427,-0.5432 0.49597,-0.28341 0.87384,-0.23617 0.37788,0.0236 0.59044,0.25979 0.23617,0.23617 0.2834,0.59043 0.0472,0.33064 -0.1417,0.6849 -0.16532,0.35426 -0.59043,0.61405 -0.82661,0.51958 -1.913,0.77937 Q 145.93206,297 145.01098,297 Z"
               id="text4-5"
               style="font-size:23.6173px;line-height:0.7;font-family:Nunito;-inkscape-font-specification:'Nunito, @wght=700';font-variation-settings:'wght' 700;text-align:center;white-space:pre;stroke-width:1.00106"
               aria-label="e" /><path
               d="m 155.2023,297 q -1.25172,0 -2.24364,-0.47235 -0.96831,-0.49596 -1.53513,-1.32257 -0.54319,-0.8266 -0.54319,-1.86576 0,-1.27534 0.66128,-2.00747 0.66128,-0.75576 2.14917,-1.0864 1.48789,-0.33064 3.99133,-0.33064 h 1.18086 v 1.70044 h -1.15724 q -1.46428,0 -2.33812,0.14171 -0.87384,0.1417 -1.25171,0.49596 -0.35426,0.33064 -0.35426,0.94469 0,0.77937 0.54319,1.27534 0.5432,0.49596 1.51151,0.49596 0.77937,0 1.3698,-0.35426 0.61405,-0.37788 0.96831,-1.01554 0.35426,-0.63767 0.35426,-1.46428 v -2.71599 q 0,-1.18086 -0.51958,-1.70044 -0.51958,-0.51958 -1.74768,-0.51958 -0.6849,0 -1.48789,0.16532 -0.77937,0.16532 -1.65321,0.56681 -0.44873,0.21256 -0.80299,0.11809 -0.33064,-0.0945 -0.51958,-0.37788 -0.18894,-0.30702 -0.18894,-0.66128 0,-0.35426 0.18894,-0.6849 0.18894,-0.35426 0.63767,-0.51958 1.0864,-0.44873 2.07832,-0.63767 1.01555,-0.18894 1.84215,-0.18894 1.70045,0 2.78684,0.51958 1.11002,0.51958 1.65321,1.58236 0.5432,1.03916 0.5432,2.69237 v 5.66816 q 0,0.73213 -0.35426,1.13363 -0.35426,0.37787 -1.01554,0.37787 -0.66129,0 -1.03916,-0.37787 -0.35426,-0.4015 -0.35426,-1.13363 v -1.13363 h 0.18894 q -0.16532,0.8266 -0.66129,1.44065 -0.47234,0.59043 -1.20448,0.92108 Q 156.14699,297 155.2023,297 Z"
               id="text3-4"
               style="font-size:23.6173px;line-height:0.7;font-family:Nunito;-inkscape-font-specification:'Nunito, @wght=700';font-variation-settings:'wght' 700;text-align:center;white-space:pre;stroke-width:1.00106"
               aria-label="a" /><path
               d="m 164.77176,297 q -0.70852,0 -1.0864,-0.37787 -0.37787,-0.4015 -0.37787,-1.13363 v -8.92734 q 0,-0.73214 0.37787,-1.11002 0.37788,-0.37787 1.06278,-0.37787 0.6849,0 1.06278,0.37787 0.37788,0.37788 0.37788,1.11002 v 1.72406 l -0.25979,-0.70852 q 0.47234,-1.18086 1.46427,-1.86577 0.99193,-0.6849 2.36173,-0.6849 1.39342,0 2.29088,0.66129 0.89746,0.66128 1.25172,2.03109 h -0.33065 q 0.47235,-1.25172 1.55874,-1.96024 1.0864,-0.73214 2.50344,-0.73214 1.32257,0 2.17279,0.51958 0.87384,0.51958 1.29895,1.58236 0.42511,1.03916 0.42511,2.64514 v 5.71539 q 0,0.73213 -0.40149,1.13363 Q 180.14662,297 179.4381,297 q -0.70852,0 -1.08639,-0.37787 -0.37788,-0.4015 -0.37788,-1.13363 v -5.5973 q 0,-1.32257 -0.44873,-1.93662 -0.42511,-0.61405 -1.46427,-0.61405 -1.15725,0 -1.81853,0.8266 -0.66129,0.80299 -0.66129,2.24365 v 5.07772 q 0,0.73213 -0.37787,1.13363 Q 172.82526,297 172.11674,297 q -0.70852,0 -1.11001,-0.37787 -0.37788,-0.4015 -0.37788,-1.13363 v -5.5973 q 0,-1.32257 -0.44873,-1.93662 -0.42511,-0.61405 -1.44065,-0.61405 -1.15725,0 -1.81854,0.8266 -0.66128,0.80299 -0.66128,2.24365 v 5.07772 q 0,1.5115 -1.48789,1.5115 z"
               id="text2-6"
               style="font-size:23.6173px;line-height:0.7;font-family:Nunito;-inkscape-font-specification:'Nunito, @wght=700';font-variation-settings:'wght' 700;text-align:center;white-space:pre;stroke-width:1.00106"
               aria-label="m" /></g></g><path
           d="m 235.25271,625.66267 q -1.752,0 -3.024,-0.768 -1.272,-0.768 -1.968,-2.136 -0.672,-1.392 -0.672,-3.216 0,-1.392 0.384,-2.496 0.384,-1.104 1.128,-1.872 0.744,-0.792 1.776,-1.2 1.056,-0.408 2.376,-0.408 0.864,0 1.8,0.264 0.936,0.264 1.704,0.912 0.24,0.168 0.312,0.408 0.072,0.24 0,0.48 -0.072,0.216 -0.24,0.384 -0.168,0.144 -0.432,0.168 -0.24,0.024 -0.504,-0.168 -0.624,-0.48 -1.272,-0.672 -0.648,-0.192 -1.248,-0.192 -0.936,0 -1.632,0.312 -0.696,0.288 -1.176,0.84 -0.48,0.552 -0.744,1.368 -0.24,0.816 -0.24,1.896 0,2.088 0.984,3.312 0.984,1.2 2.808,1.2 0.6,0 1.224,-0.192 0.648,-0.192 1.296,-0.672 0.264,-0.192 0.504,-0.168 0.24,0.024 0.408,0.192 0.168,0.144 0.216,0.384 0.072,0.24 0,0.48 -0.072,0.216 -0.312,0.384 -0.768,0.624 -1.68,0.912 -0.912,0.264 -1.776,0.264 z m 10.77598,0 q -1.704,0 -2.952,-0.744 -1.248,-0.744 -1.944,-2.088 -0.672,-1.368 -0.672,-3.216 0,-1.392 0.384,-2.496 0.384,-1.128 1.128,-1.92 0.744,-0.792 1.752,-1.2 1.032,-0.432 2.304,-0.432 1.704,0 2.952,0.744 1.248,0.744 1.92,2.112 0.696,1.344 0.696,3.192 0,1.392 -0.384,2.496 -0.384,1.104 -1.128,1.92 -0.744,0.792 -1.776,1.224 -1.008,0.408 -2.28,0.408 z m 0,-1.56 q 1.08,0 1.896,-0.528 0.816,-0.528 1.248,-1.536 0.456,-1.008 0.456,-2.424 0,-2.184 -0.984,-3.336 -0.96,-1.152 -2.616,-1.152 -1.104,0 -1.92,0.528 -0.792,0.504 -1.248,1.512 -0.432,0.984 -0.432,2.448 0,2.16 0.984,3.336 0.984,1.152 2.616,1.152 z m 9.45599,1.512 q -0.48,0 -0.72,-0.264 -0.24,-0.264 -0.24,-0.744 v -10.008 q 0,-0.48 0.24,-0.72 0.24,-0.264 0.696,-0.264 0.456,0 0.696,0.264 0.264,0.24 0.264,0.72 v 2.064 l -0.264,-0.288 q 0.504,-1.392 1.632,-2.088 1.152,-0.72 2.64,-0.72 1.392,0 2.304,0.504 0.936,0.504 1.392,1.536 0.456,1.008 0.456,2.568 v 6.432 q 0,0.48 -0.264,0.744 -0.24,0.264 -0.696,0.264 -0.48,0 -0.744,-0.264 -0.24,-0.264 -0.24,-0.744 v -6.312 q 0,-1.632 -0.648,-2.376 -0.624,-0.768 -2.016,-0.768 -1.608,0 -2.568,1.008 -0.936,0.984 -0.936,2.64 v 5.808 q 0,1.008 -0.984,1.008 z m 14.25602,0 q -0.456,0 -0.72,-0.264 -0.24,-0.264 -0.24,-0.744 v -9.312 h -1.536 q -0.384,0 -0.624,-0.192 -0.216,-0.216 -0.216,-0.576 0,-0.36 0.216,-0.552 0.24,-0.192 0.624,-0.192 h 2.064 l -0.528,0.504 v -0.912 q 0,-2.256 1.08,-3.456 1.104,-1.2 3.24,-1.368 l 0.72,-0.072 q 0.36,-0.024 0.576,0.12 0.216,0.12 0.264,0.336 0.072,0.216 0.024,0.456 -0.048,0.24 -0.216,0.408 -0.144,0.168 -0.36,0.192 l -0.72,0.048 q -1.416,0.096 -2.04,0.888 -0.624,0.768 -0.624,2.208 v 1.008 l -0.288,-0.36 h 6.528 q 0.456,0 0.696,0.264 0.264,0.264 0.264,0.768 v 9.696 q 0,0.504 -0.24,0.792 -0.24,0.264 -0.72,0.264 -0.48,0 -0.744,-0.264 -0.24,-0.288 -0.24,-0.792 v -9.216 h -5.256 v 9.312 q 0,1.008 -0.984,1.008 z m 7.248,-14.64 q -0.6,0 -0.936,-0.312 -0.312,-0.336 -0.312,-0.888 0,-0.576 0.312,-0.864 0.336,-0.312 0.936,-0.312 0.6,0 0.912,0.312 0.336,0.288 0.336,0.864 0,0.552 -0.336,0.888 -0.312,0.312 -0.912,0.312 z m 9.024,14.688 q -1.56,0 -2.736,-0.744 -1.152,-0.744 -1.8,-2.088 -0.624,-1.368 -0.624,-3.216 0,-1.872 0.624,-3.216 0.648,-1.368 1.8,-2.088 1.176,-0.744 2.736,-0.744 1.584,0 2.712,0.792 1.128,0.792 1.512,2.136 h -0.264 v -7.152 q 0,-0.48 0.24,-0.72 0.264,-0.264 0.744,-0.264 0.456,0 0.696,0.264 0.264,0.24 0.264,0.72 v 15.264 q 0,0.48 -0.24,0.744 -0.24,0.264 -0.72,0.264 -0.456,0 -0.72,-0.264 -0.24,-0.264 -0.24,-0.744 v -2.28 l 0.264,0.336 q -0.384,1.368 -1.536,2.184 -1.128,0.816 -2.712,0.816 z m 0.408,-1.56 q 1.08,0 1.896,-0.528 0.816,-0.528 1.248,-1.536 0.456,-1.008 0.456,-2.424 0,-2.184 -0.984,-3.336 -0.96,-1.152 -2.616,-1.152 -1.104,0 -1.92,0.528 -0.792,0.504 -1.248,1.512 -0.432,0.984 -0.432,2.448 0,2.16 0.984,3.336 0.984,1.152 2.616,1.152 z m 14.40001,1.56 q -1.848,0 -3.192,-0.72 -1.32,-0.744 -2.064,-2.088 -0.72,-1.344 -0.72,-3.216 0,-1.824 0.72,-3.168 0.72,-1.368 1.968,-2.136 1.272,-0.768 2.928,-0.768 1.176,0 2.112,0.408 0.936,0.384 1.584,1.128 0.672,0.744 1.008,1.8 0.36,1.056 0.36,2.376 0,0.384 -0.216,0.576 -0.216,0.168 -0.624,0.168 h -8.352 v -1.272 h 7.896 l -0.384,0.312 q 0,-1.296 -0.384,-2.184 -0.384,-0.912 -1.128,-1.392 -0.72,-0.48 -1.824,-0.48 -1.224,0 -2.088,0.576 -0.84,0.552 -1.272,1.56 -0.432,0.984 -0.432,2.304 v 0.144 q 0,2.208 1.056,3.36 1.08,1.152 3.048,1.152 0.816,0 1.608,-0.216 0.816,-0.216 1.584,-0.72 0.336,-0.216 0.6,-0.192 0.288,0 0.456,0.168 0.168,0.144 0.216,0.384 0.072,0.216 -0.048,0.48 -0.096,0.264 -0.408,0.456 -0.792,0.576 -1.872,0.888 -1.08,0.312 -2.136,0.312 z m 8.47199,-0.048 q -0.48,0 -0.72,-0.264 -0.24,-0.264 -0.24,-0.744 v -10.008 q 0,-0.48 0.24,-0.72 0.24,-0.264 0.696,-0.264 0.456,0 0.696,0.264 0.264,0.24 0.264,0.72 v 2.064 l -0.264,-0.288 q 0.504,-1.392 1.632,-2.088 1.152,-0.72 2.64,-0.72 1.392,0 2.304,0.504 0.936,0.504 1.392,1.536 0.456,1.008 0.456,2.568 v 6.432 q 0,0.48 -0.264,0.744 -0.24,0.264 -0.696,0.264 -0.48,0 -0.744,-0.264 -0.24,-0.264 -0.24,-0.744 v -6.312 q 0,-1.632 -0.648,-2.376 -0.624,-0.768 -2.016,-0.768 -1.608,0 -2.568,1.008 -0.936,0.984 -0.936,2.64 v 5.808 q 0,1.008 -0.984,1.008 z m 17.61602,0.048 q -1.752,0 -3.024,-0.768 -1.272,-0.768 -1.968,-2.136 -0.672,-1.392 -0.672,-3.216 0,-1.392 0.384,-2.496 0.384,-1.104 1.128,-1.872 0.744,-0.792 1.776,-1.2 1.056,-0.408 2.376,-0.408 0.864,0 1.8,0.264 0.936,0.264 1.704,0.912 0.24,0.168 0.312,0.408 0.072,0.24 0,0.48 -0.072,0.216 -0.24,0.384 -0.168,0.144 -0.432,0.168 -0.24,0.024 -0.504,-0.168 -0.624,-0.48 -1.272,-0.672 -0.648,-0.192 -1.248,-0.192 -0.936,0 -1.632,0.312 -0.696,0.288 -1.176,0.84 -0.48,0.552 -0.744,1.368 -0.24,0.816 -0.24,1.896 0,2.088 0.984,3.312 0.984,1.2 2.808,1.2 0.6,0 1.224,-0.192 0.648,-0.192 1.296,-0.672 0.264,-0.192 0.504,-0.168 0.24,0.024 0.408,0.192 0.168,0.144 0.216,0.384 0.072,0.24 0,0.48 -0.072,0.216 -0.312,0.384 -0.768,0.624 -1.68,0.912 -0.912,0.264 -1.776,0.264 z m 11.18398,0 q -1.848,0 -3.192,-0.72 -1.32,-0.744 -2.064,-2.088 -0.72,-1.344 -0.72,-3.216 0,-1.824 0.72,-3.168 0.72,-1.368 1.968,-2.136 1.272,-0.768 2.928,-0.768 1.176,0 2.112,0.408 0.936,0.384 1.584,1.128 0.672,0.744 1.008,1.8 0.36,1.056 0.36,2.376 0,0.384 -0.216,0.576 -0.216,0.168 -0.624,0.168 h -8.352 v -1.272 h 7.896 l -0.384,0.312 q 0,-1.296 -0.384,-2.184 -0.384,-0.912 -1.128,-1.392 -0.72,-0.48 -1.824,-0.48 -1.224,0 -2.088,0.576 -0.84,0.552 -1.272,1.56 -0.432,0.984 -0.432,2.304 v 0.144 q 0,2.208 1.056,3.36 1.08,1.152 3.048,1.152 0.816,0 1.608,-0.216 0.816,-0.216 1.584,-0.72 0.336,-0.216 0.6,-0.192 0.288,0 0.456,0.168 0.168,0.144 0.216,0.384 0.072,0.216 -0.048,0.48 -0.096,0.264 -0.408,0.456 -0.792,0.576 -1.872,0.888 -1.08,0.312 -2.136,0.312 z m 18.38397,0 q -1.368,0 -2.304,-0.48 -0.912,-0.504 -1.368,-1.44 -0.456,-0.96 -0.456,-2.328 v -6.12 h -1.608 q -0.408,0 -0.624,-0.192 -0.216,-0.216 -0.216,-0.576 0,-0.36 0.216,-0.552 0.216,-0.192 0.624,-0.192 h 1.608 v -2.76 q 0,-0.48 0.264,-0.72 0.264,-0.264 0.72,-0.264 0.456,0 0.696,0.264 0.264,0.24 0.264,0.72 v 2.76 h 3.024 q 0.408,0 0.624,0.192 0.216,0.192 0.216,0.552 0,0.36 -0.216,0.576 -0.216,0.192 -0.624,0.192 h -3.024 v 5.928 q 0,1.368 0.576,2.088 0.576,0.696 1.872,0.696 0.456,0 0.768,-0.096 0.336,-0.096 0.552,-0.096 0.216,-0.024 0.36,0.144 0.144,0.168 0.144,0.576 0,0.288 -0.12,0.528 -0.096,0.24 -0.36,0.336 -0.288,0.096 -0.768,0.168 -0.456,0.096 -0.84,0.096 z m 8.44803,0 q -1.704,0 -2.952,-0.744 -1.248,-0.744 -1.944,-2.088 -0.672,-1.368 -0.672,-3.216 0,-1.392 0.384,-2.496 0.384,-1.128 1.128,-1.92 0.744,-0.792 1.752,-1.2 1.032,-0.432 2.304,-0.432 1.704,0 2.952,0.744 1.248,0.744 1.92,2.112 0.696,1.344 0.696,3.192 0,1.392 -0.384,2.496 -0.384,1.104 -1.128,1.92 -0.744,0.792 -1.776,1.224 -1.008,0.408 -2.28,0.408 z m 0,-1.56 q 1.08,0 1.896,-0.528 0.816,-0.528 1.248,-1.536 0.456,-1.008 0.456,-2.424 0,-2.184 -0.984,-3.336 -0.96,-1.152 -2.616,-1.152 -1.104,0 -1.92,0.528 -0.792,0.504 -1.248,1.512 -0.432,0.984 -0.432,2.448 0,2.16 0.984,3.336 0.984,1.152 2.616,1.152 z m 20.59198,1.56 q -1.584,0 -2.736,-0.816 -1.128,-0.816 -1.512,-2.184 l 0.264,-0.264 v 2.208 q 0,0.48 -0.264,0.744 -0.24,0.264 -0.696,0.264 -0.48,0 -0.72,-0.264 -0.24,-0.264 -0.24,-0.744 v -15.264 q 0,-0.48 0.24,-0.72 0.24,-0.264 0.72,-0.264 0.456,0 0.72,0.264 0.264,0.24 0.264,0.72 v 7.152 h -0.288 q 0.408,-1.344 1.536,-2.136 1.128,-0.792 2.712,-0.792 1.584,0 2.736,0.744 1.152,0.72 1.776,2.088 0.648,1.344 0.648,3.216 0,1.848 -0.648,3.216 -0.624,1.344 -1.8,2.088 -1.152,0.744 -2.712,0.744 z m -0.408,-1.56 q 1.104,0 1.896,-0.528 0.816,-0.528 1.248,-1.536 0.456,-1.008 0.456,-2.424 0,-2.184 -0.984,-3.336 -0.96,-1.152 -2.616,-1.152 -1.08,0 -1.896,0.528 -0.816,0.504 -1.272,1.512 -0.432,0.984 -0.432,2.448 0,2.16 0.984,3.336 0.984,1.152 2.616,1.152 z m 12.62401,1.56 q -1.416,0 -2.352,-0.504 -0.912,-0.528 -1.392,-1.56 -0.456,-1.032 -0.456,-2.568 v -6.432 q 0,-0.504 0.24,-0.744 0.264,-0.24 0.72,-0.24 0.48,0 0.72,0.24 0.264,0.24 0.264,0.744 v 6.408 q 0,1.536 0.624,2.304 0.648,0.744 2.016,0.744 1.488,0 2.424,-1.008 0.936,-1.008 0.936,-2.64 v -5.808 q 0,-0.504 0.24,-0.744 0.264,-0.24 0.744,-0.24 0.456,0 0.696,0.24 0.264,0.24 0.264,0.744 v 10.008 q 0,1.008 -0.936,1.008 -0.456,0 -0.72,-0.264 -0.24,-0.264 -0.24,-0.744 v -2.184 l 0.312,0.336 q -0.48,1.416 -1.584,2.16 -1.08,0.744 -2.52,0.744 z m 10.29602,-0.096 q -0.48,0 -0.72,-0.264 -0.24,-0.288 -0.24,-0.792 v -9.816 q 0,-0.504 0.24,-0.768 0.24,-0.264 0.72,-0.264 0.456,0 0.72,0.264 0.264,0.264 0.264,0.768 v 9.816 q 0,0.504 -0.264,0.792 -0.24,0.264 -0.72,0.264 z m 0,-14.592 q -0.6,0 -0.936,-0.312 -0.336,-0.336 -0.336,-0.888 0,-0.576 0.336,-0.864 0.336,-0.312 0.936,-0.312 0.624,0 0.936,0.312 0.336,0.288 0.336,0.864 0,0.552 -0.336,0.888 -0.312,0.312 -0.936,0.312 z m 8.16,14.688 q -1.728,0 -2.64,-1.056 -0.912,-1.056 -0.912,-3.024 v -12.24 q 0,-0.48 0.24,-0.72 0.24,-0.264 0.72,-0.264 0.456,0 0.72,0.264 0.264,0.24 0.264,0.72 v 12.096 q 0,1.296 0.504,1.944 0.528,0.624 1.536,0.624 0.216,0 0.384,-0.024 0.168,-0.024 0.336,-0.024 0.264,-0.024 0.36,0.12 0.12,0.144 0.12,0.576 0,0.432 -0.192,0.648 -0.192,0.216 -0.624,0.288 -0.192,0.024 -0.408,0.048 -0.216,0.024 -0.408,0.024 z m 7.87201,0 q -1.56,0 -2.736,-0.744 -1.152,-0.744 -1.8,-2.088 -0.624,-1.368 -0.624,-3.216 0,-1.872 0.624,-3.216 0.648,-1.368 1.8,-2.088 1.176,-0.744 2.736,-0.744 1.584,0 2.712,0.792 1.128,0.792 1.512,2.136 h -0.264 v -7.152 q 0,-0.48 0.24,-0.72 0.264,-0.264 0.744,-0.264 0.456,0 0.696,0.264 0.264,0.24 0.264,0.72 v 15.264 q 0,0.48 -0.24,0.744 -0.24,0.264 -0.72,0.264 -0.456,0 -0.72,-0.264 -0.24,-0.264 -0.24,-0.744 v -2.28 l 0.264,0.336 q -0.384,1.368 -1.536,2.184 -1.128,0.816 -2.712,0.816 z m 0.408,-1.56 q 1.08,0 1.896,-0.528 0.816,-0.528 1.248,-1.536 0.456,-1.008 0.456,-2.424 0,-2.184 -0.984,-3.336 -0.96,-1.152 -2.616,-1.152 -1.104,0 -1.92,0.528 -0.792,0.504 -1.248,1.512 -0.432,0.984 -0.432,2.448 0,2.16 0.984,3.336 0.984,1.152 2.616,1.152 z"
           id="text12-6"
           style="font-size:24px;line-height:0.7;font-family:Nunito;-inkscape-font-specification:'Nunito, @wght=400';font-variation-settings:'wght' 400;text-align:center;white-space:pre;stroke-width:3.61701"
           transform="matrix(0.59009559,0,0,0.59009559,-81.748167,-205.17176)"
           aria-label="confidence to build" /></g><g
         id="g32-8"
         transform="translate(-15.589936,-204.50295)"><path
           id="path25-4"
           style="font-variation-settings:'wght' 400;fill:url(#linearGradient34);fill-opacity:1;stroke-width:0.857672"
           d="m 62.23964,235.67971 c -4.053633,0.10164 -8.127036,-0.14506 -12.167925,0.21701 -4.693689,0.71685 -9.22788,5.00811 -9.160519,9.95242 -0.05314,8.26729 -0.0013,16.36825 -0.0026,24.58813 -0.01042,2.57878 2.8232,4.38808 5.709459,4.39987 2.737756,-0.0276 5.159138,-2.10515 5.213879,-5.24833 0.124844,-2.31598 0.999645,-7.45585 10.068189,-7.46162 4.733313,0.0736 9.63632,-2.97307 10.833459,-7.70532 0.612599,-2.49633 0.554517,-4.96862 0.492553,-7.62595 -0.0041,-2.96153 -0.254993,-5.51718 -2.193408,-7.49961 -2.209593,-2.47144 -5.536209,-3.60878 -8.793134,-3.6166 z" /><path
           id="path31-8"
           style="font-variation-settings:'wght' 400;fill:url(#linearGradient35);fill-opacity:1;stroke-width:0.857672"
           d="m 73.200183,245.52403 c -0.06906,-0.48403 -0.120007,-0.919 -0.110587,-1.22886 0,0 0.498447,8.77543 -15.406295,8.65942 -12.756201,-0.0931 -16.157185,3.58572 -16.786056,9.60458 0.0041,2.03153 0.0074,4.06368 0.0088,6.10298 0.0012,0.0201 0.0019,0.0388 0.0031,0.0589 0.04777,0.76732 1.243441,-8.34825 17.62218,-6.72621 0.824514,0.0816 1.60146,0.13237 2.343009,0.15916 0.331098,-0.0156 0.669892,-0.0266 1.025778,-0.0269 4.733308,0.0736 9.636309,-2.97323 10.833447,-7.70547 0.612598,-2.49633 0.55444,-4.96856 0.492476,-7.62589 -6e-4,-0.43387 -0.01011,-0.85584 -0.02584,-1.27176 z" /></g></g></g></svg>
